<svg width="34" height="37" fill="none" xmlns="http://www.w3.org/2000/svg">
<path d="M17 .53C8.661.529 1.555 7.121.22 16.094c-1.334 8.972 3.497 17.676 11.407 20.548.852.167 1.157-.404 1.157-.894 0-.44-.014-1.607-.019-3.158-4.728 1.115-5.726-2.486-5.726-2.486-.312-1.12-.98-2.081-1.886-2.71-1.534-1.15.117-1.124.117-1.124 1.092.163 2.052.869 2.602 1.91.465.922 1.248 1.603 2.176 1.892.928.29 1.923.163 2.765-.352.079-.94.463-1.819 1.082-2.478-3.772-.467-7.739-2.057-7.739-9.159-.02-1.837.605-3.612 1.748-4.962a7.224 7.224 0 0 1 .17-4.904s1.427-.5 4.672 1.897a14.8 14.8 0 0 1 8.506 0c3.247-2.398 4.672-1.897 4.672-1.897a7.19 7.19 0 0 1 .17 4.904c1.148 1.35 1.773 3.13 1.745 4.97 0 7.12-3.97 8.684-7.756 9.143.817.91 1.236 2.16 1.15 3.43 0 2.478-.02 4.477-.02 5.084 0 .496.303 1.072 1.17.89 7.907-2.877 12.733-11.581 11.395-20.551C32.441 7.117 25.334.528 17 .53Z" fill="#0A0A14"/>
</svg>