<svg width="31" height="35" fill="none" xmlns="http://www.w3.org/2000/svg">
<path d="M17.222 34.387h-6.889V11.752h6.89v3.772c1.468-2.045 3.694-3.265 6.07-3.325 4.272.026 7.72 3.834 7.707 8.513v13.675h-6.889V21.655c-.275-2.108-1.926-3.672-3.87-3.667-.85.03-1.653.437-2.222 1.13a3.63 3.63 0 0 0-.797 2.537v12.732Zm-10.333 0H0V11.752h6.889v22.635ZM3.444 7.98C1.542 7.98 0 6.29 0 4.207S1.542.435 3.444.435c1.903 0 3.445 1.689 3.445 3.772 0 1-.363 1.96-1.009 2.668-.646.707-1.522 1.105-2.436 1.105Z" fill="#0A0A14"/>
</svg>